<?xml version="1.0" standalone="no"?>
<!DOCTYPE svg PUBLIC "-//W3C//DTD SVG 20010904//EN"
 "http://www.w3.org/TR/2001/REC-SVG-20010904/DTD/svg10.dtd">
<svg version="1.0" xmlns="http://www.w3.org/2000/svg"
 width="198.000000pt" height="256.000000pt" viewBox="0 0 198.000000 256.000000"
 preserveAspectRatio="xMidYMid meet">

<g transform="translate(0.000000,256.000000) scale(0.100000,-0.100000)"
fill="#000000" stroke="none">
<path d="M170 1335 l0 -775 775 0 775 0 0 775 0 775 -775 0 -775 0 0 -775z
m1458 3 l2 -678 -680 0 -680 0 0 680 0 680 678 -2 677 -3 3 -677z"/>
<path d="M431 1870 c-74 -17 -125 -83 -125 -160 0 -150 194 -217 286 -100 l26
33 34 -36 c58 -61 126 -74 199 -37 45 24 75 66 84 122 5 30 1 49 -17 85 -55
110 -174 129 -261 43 l-38 -39 -35 39 c-19 21 -47 41 -62 44 -15 4 -34 8 -42
10 -8 2 -30 0 -49 -4z m77 -106 c41 -28 22 -112 -26 -115 -33 -3 -47 2 -64 23
-53 61 23 139 90 92z m312 -4 c41 -41 13 -112 -45 -112 -37 0 -65 29 -65 68 0
57 69 85 110 44z"/>
<path d="M1030 1573 c-8 -3 -34 -19 -57 -35 l-43 -29 0 -84 0 -84 47 -36 c31
-24 56 -35 73 -33 l25 3 3 139 c3 156 -3 176 -48 159z"/>
<path d="M540 1549 c-41 -23 -97 -25 -145 -5 l-35 15 0 -148 0 -148 83 -6
c105 -9 249 -9 355 0 l82 6 0 149 0 149 -30 -16 c-40 -21 -103 -19 -150 5 -49
25 -114 25 -160 -1z"/>
<path d="M425 1196 c-17 -7 -39 -25 -48 -39 -22 -34 -23 -137 -1 -178 19 -38
73 -62 119 -53 36 6 85 47 85 70 0 17 -51 19 -67 3 -6 -6 -26 -9 -44 -7 l-34
3 0 70 0 70 34 3 c18 2 38 -1 44 -7 17 -17 67 -14 67 4 0 23 -46 62 -81 69
-40 8 -38 8 -74 -8z"/>
<path d="M620 1170 c0 -23 4 -30 20 -30 18 0 20 -7 20 -75 0 -68 -2 -75 -20
-75 -16 0 -20 -7 -20 -30 l0 -30 65 0 65 0 0 30 c0 20 -5 30 -15 30 -12 0 -15
15 -15 75 0 60 3 75 15 75 10 0 15 10 15 30 l0 30 -65 0 -65 0 0 -30z"/>
<path d="M810 1065 l0 -135 29 0 c27 0 29 2 35 62 l7 62 35 -54 c18 -30 34
-58 34 -62 0 -5 18 -8 40 -8 l40 0 0 135 0 135 -35 0 -34 0 -3 -72 -3 -71 -45
71 c-38 61 -49 72 -72 72 l-28 0 0 -135z"/>
<path d="M1080 1065 l0 -135 100 0 100 0 0 30 0 30 -65 0 c-58 0 -65 2 -65 20
0 16 8 19 58 22 56 3 57 3 57 33 0 30 -1 30 -57 33 -50 3 -58 6 -58 22 0 18 7
20 65 20 l65 0 0 30 0 30 -100 0 -100 0 0 -135z"/>
<path d="M1330 1065 l0 -135 100 0 100 0 0 30 0 30 -65 0 -65 0 0 105 0 105
-35 0 -35 0 0 -135z"/>
</g>
</svg>
