<?xml version="1.0" standalone="no"?>
<!DOCTYPE svg PUBLIC "-//W3C//DTD SVG 20010904//EN"
 "http://www.w3.org/TR/2001/REC-SVG-20010904/DTD/svg10.dtd">
<svg version="1.0" xmlns="http://www.w3.org/2000/svg"
 width="198.000000pt" height="256.000000pt" viewBox="0 0 198.000000 256.000000"
 preserveAspectRatio="xMidYMid meet">

<g transform="translate(0.000000,256.000000) scale(0.100000,-0.100000)"
fill="#000000" stroke="none">
<path d="M345 2037 c-56 -27 -119 -91 -141 -143 -9 -23 -14 -74 -14 -159 0
-113 2 -130 24 -173 33 -65 93 -117 157 -136 66 -20 89 -20 160 0 88 25 144
79 163 157 l6 27 -66 0 c-58 0 -68 -3 -85 -25 -25 -30 -79 -41 -130 -26 -61
19 -69 38 -69 178 0 113 2 124 23 149 19 22 34 28 80 32 52 4 58 2 87 -27 29
-28 37 -31 97 -31 64 0 65 0 59 25 -26 105 -107 164 -236 172 -53 3 -74 0
-115 -20z"/>
<path d="M902 1753 l3 -308 73 -3 72 -3 1 88 c1 48 4 118 8 156 l6 68 93 -156
93 -155 75 0 74 0 0 310 0 310 -75 0 -75 0 -2 -165 -3 -165 -105 165 -105 164
-68 1 -67 0 2 -307z"/>
<path d="M1701 1380 c-62 -34 -112 -70 -158 -113 l-33 -31 0 -178 0 -178 76
-60 c122 -97 216 -134 252 -98 17 17 17 659 0 676 -21 21 -81 13 -137 -18z"/>
<path d="M647 1364 c-117 -81 -272 -84 -404 -8 l-43 25 0 -349 0 -349 348 -5
c191 -4 462 -3 602 0 l255 7 3 348 c1 192 -1 347 -5 345 -123 -61 -150 -71
-212 -76 -82 -6 -153 13 -235 63 -57 34 -61 35 -160 34 -98 -1 -102 -2 -149
-35z"/>
</g>
</svg>
