<?xml version="1.0" standalone="no"?>
<!DOCTYPE svg PUBLIC "-//W3C//DTD SVG 20010904//EN" "http://www.w3.org/TR/2001/REC-SVG-20010904/DTD/svg10.dtd">
<svg xmlns="http://www.w3.org/2000/svg" version="1.0" width="198.000000pt" height="256.000000pt" viewBox="0 0 198.000000 256.000000" preserveAspectRatio="xMidYMid meet">
<metadata>
Created by potrace 1.16, written by Peter Selinger 2001-2019
<meta name="Producer" content="Online-Convert"/></metadata>
<g transform="translate(0.000000,256.000000) scale(0.100000,-0.100000)" fill="#000000" stroke="none">
<path d="M68 2244 c-41 -22 -48 -43 -48 -148 0 -89 1 -96 20 -96 13 0 18 -5 14 -15 -5 -13 12 -15 123 -15 l130 0 6 83 c4 45 7 110 7 145 l0 62 -112 0 c-80 -1 -121 -5 -140 -16z m172 -83 c0 -10 -3 -39 -6 -65 l-7 -46 -63 0 -64 0 0 58 c0 32 3 62 7 65 3 4 35 7 70 7 55 0 63 -2 63 -19z"/>
<path d="M350 2115 l0 -145 155 0 156 0 -3 143 -3 142 -152 3 -153 3 0 -146z m220 0 l0 -65 -70 0 -70 0 0 65 0 65 70 0 70 0 0 -65z"/>
<path d="M677 2168 c2 -51 6 -117 9 -145 l5 -53 125 0 c99 0 124 3 124 14 0 7 9 16 20 19 18 5 20 14 20 85 0 153 -22 172 -198 172 l-109 0 4 -92z m213 -53 l0 -65 -65 0 -65 0 0 65 0 65 65 0 65 0 0 -65z"/>
<path d="M1535 2067 c-61 -29 -127 -101 -143 -155 -20 -66 -15 -153 12 -205 l23 -47 -57 -35 c-32 -19 -62 -35 -68 -35 -6 0 -70 38 -141 85 -72 47 -137 88 -146 92 -15 5 -16 -7 -8 -118 4 -68 8 -149 8 -178 l0 -55 -250 -148 c-137 -82 -262 -162 -277 -178 -37 -40 -36 -75 3 -111 57 -53 172 -73 274 -45 88 23 136 50 327 184 103 73 192 132 197 132 6 0 39 -16 74 -35 l64 -35 -18 -53 c-34 -98 -18 -190 48 -267 77 -90 215 -117 321 -64 157 78 196 293 76 418 -15 16 -92 71 -172 123 l-144 94 123 84 c205 137 236 174 246 284 10 106 -37 197 -130 255 -68 42 -171 47 -242 13z m213 -90 c54 -35 86 -102 80 -167 -17 -171 -230 -231 -334 -94 -52 68 -41 188 23 246 59 54 162 61 231 15z m-12 -776 c108 -49 140 -198 61 -288 -132 -151 -384 -6 -313 180 41 107 151 154 252 108z"/>
<path d="M13 1563 c4 -203 7 -492 7 -644 l0 -276 472 -6 c260 -4 475 -3 479 1 4 4 4 77 2 163 l-6 156 -74 -24 c-180 -57 -340 -53 -407 11 -96 90 -37 187 176 290 62 30 156 81 208 114 l95 59 3 255 2 255 -307 6 c-170 4 -386 7 -482 7 l-174 0 6 -367z m725 277 l152 0 0 -193 0 -192 -102 -61 c-57 -33 -142 -79 -190 -102 -144 -70 -239 -173 -240 -260 -1 -78 56 -156 142 -196 38 -18 63 -21 165 -20 71 1 141 8 173 16 l52 15 0 -66 0 -66 -392 3 c-216 1 -393 4 -394 5 -1 1 -4 256 -6 566 l-4 564 246 -6 c135 -4 314 -7 398 -7z"/>
<path d="M20 476 c0 -123 0 -125 26 -145 24 -19 40 -21 150 -21 l123 0 -5 123 c-8 186 10 167 -154 167 l-140 0 0 -124z m210 -21 l0 -65 -65 0 -65 0 0 65 0 65 65 0 65 0 0 -65z"/>
<path d="M340 455 l0 -145 155 0 155 0 0 145 0 145 -155 0 -155 0 0 -145z m230 0 l0 -65 -75 0 -75 0 0 65 0 65 75 0 75 0 0 -65z"/>
<path d="M680 562 c0 -22 -3 -87 -7 -145 l-6 -107 127 0 c121 0 128 1 151 25 23 23 25 31 25 130 0 87 -3 105 -15 105 -8 0 -15 7 -15 15 0 13 -21 15 -130 15 l-130 0 0 -38z m210 -107 l0 -65 -71 0 c-61 0 -70 2 -65 16 3 9 6 38 6 65 l0 49 65 0 65 0 0 -65z"/>
</g>
</svg>
