<?xml version="1.0" standalone="no"?>
<!DOCTYPE svg PUBLIC "-//W3C//DTD SVG 20010904//EN" "http://www.w3.org/TR/2001/REC-SVG-20010904/DTD/svg10.dtd">
<svg xmlns="http://www.w3.org/2000/svg" version="1.0" width="198.000000pt" height="256.000000pt" viewBox="0 0 198.000000 256.000000" preserveAspectRatio="xMidYMid meet">
<metadata>
Created by potrace 1.16, written by Peter Selinger 2001-2019
<meta name="Producer" content="Online-Convert"/></metadata>
<g transform="translate(0.000000,256.000000) scale(0.100000,-0.100000)" fill="#000000" stroke="none">
<path d="M368 2159 c-15 -44 -61 -62 -103 -42 l-32 15 -51 -53 c-51 -53 -58 -74 -43 -114 12 -29 -17 -82 -51 -96 -27 -11 -28 -14 -28 -81 0 -68 1 -70 29 -81 40 -15 60 -61 48 -109 -8 -35 -6 -40 39 -93 43 -49 52 -55 74 -49 37 12 89 9 102 -4 9 -9 -10 -12 -82 -12 -110 0 -151 -15 -188 -69 l-23 -35 3 -417 c3 -404 4 -418 24 -446 48 -65 26 -63 694 -63 573 0 607 1 647 19 51 24 76 67 77 137 l1 51 159 -79 c175 -87 211 -94 251 -53 l25 24 0 426 c0 259 -4 433 -10 445 -13 25 -63 41 -98 31 -15 -5 -95 -40 -176 -80 -82 -39 -151 -71 -153 -71 -1 0 -3 19 -3 41 0 55 -31 105 -76 121 -40 14 -41 19 -14 43 15 14 19 26 15 47 -9 38 1 63 30 76 22 10 25 18 25 68 0 50 -3 59 -31 85 -27 25 -31 34 -26 67 4 34 1 40 -38 75 -37 32 -47 37 -64 28 -26 -14 -67 1 -76 28 -7 24 -37 34 -91 29 -29 -2 -41 -9 -51 -27 -16 -34 -37 -43 -70 -30 -26 10 -31 8 -70 -35 -38 -42 -41 -49 -33 -77 8 -28 6 -35 -20 -59 -41 -38 -48 -133 -10 -145 30 -9 42 -39 30 -71 -9 -24 -7 -31 17 -56 l27 -28 -210 1 c-196 1 -207 2 -174 16 29 12 41 13 68 3 32 -11 35 -10 85 37 29 26 52 50 52 53 0 3 -4 19 -8 35 -11 44 14 99 53 115 30 12 30 14 30 85 0 73 0 74 -34 95 -42 25 -60 71 -47 116 8 30 5 35 -43 83 l-52 52 -34 -15 c-31 -13 -38 -12 -71 5 -23 11 -39 28 -43 44 -6 24 -9 25 -87 25 l-80 0 -11 -31z m122 -68 c16 -31 119 -73 158 -66 42 8 64 -8 53 -38 -5 -14 -3 -37 5 -61 8 -21 14 -47 14 -57 0 -12 13 -26 35 -36 27 -13 35 -23 35 -43 0 -20 -9 -31 -35 -46 -23 -12 -35 -26 -35 -40 0 -12 -6 -37 -14 -55 -8 -20 -10 -42 -6 -54 12 -31 -15 -57 -46 -43 -32 15 -151 -34 -167 -69 -14 -32 -46 -30 -58 5 -12 36 -118 80 -154 64 -34 -16 -59 15 -50 59 9 39 -38 145 -67 155 -23 7 -24 41 0 48 9 3 30 29 45 56 24 42 27 58 22 91 -9 51 7 72 47 63 45 -9 147 32 154 62 8 30 49 33 64 5z m700 -222 c0 -15 90 -53 121 -51 22 2 26 -2 27 -25 1 -59 14 -95 38 -105 30 -14 30 -31 1 -50 -24 -17 -51 -97 -40 -124 5 -14 2 -16 -19 -11 -29 8 -117 -26 -131 -49 -11 -19 -27 -18 -27 1 0 18 -63 47 -110 49 -33 2 -35 4 -32 33 3 33 -29 108 -49 115 -7 2 1 22 21 51 23 34 31 56 28 80 -3 28 0 32 22 32 37 0 120 36 120 51 0 8 7 14 15 14 8 0 15 -5 15 -11z m208 -525 l22 -15 0 -404 0 -405 -24 -15 c-20 -14 -96 -15 -625 -13 -583 3 -603 4 -617 22 -11 16 -14 89 -14 411 0 403 1 414 40 428 8 3 281 6 605 6 519 1 593 -1 613 -15z m462 -409 c0 -217 -3 -395 -7 -394 -5 0 -83 37 -175 82 l-167 82 -6 230 -5 231 168 81 c92 45 173 82 180 82 9 1 12 -84 12 -394z"/>
<path d="M371 1974 c-71 -36 -104 -86 -109 -168 -3 -49 0 -71 16 -102 38 -75 107 -117 188 -116 187 2 274 224 137 354 -65 62 -148 73 -232 32z m144 -68 c121 -51 82 -236 -50 -236 -80 0 -131 57 -122 137 5 49 27 79 72 99 39 17 58 17 100 0z"/>
<path d="M1091 1798 c-88 -60 -96 -193 -15 -257 90 -71 222 -30 255 79 17 56 4 106 -40 153 -36 38 -43 41 -102 45 -55 3 -69 0 -98 -20z m140 -77 c29 -23 31 -81 4 -111 -25 -28 -87 -27 -115 2 -65 70 36 170 111 109z"/>
<path d="M228 1302 c-55 -33 -58 -52 -58 -381 0 -336 3 -356 62 -388 31 -16 72 -18 558 -18 486 0 528 1 553 18 59 38 59 36 58 389 -1 296 -3 325 -20 348 -36 50 -31 50 -596 50 -481 -1 -533 -2 -557 -18z m1080 -70 c9 -7 12 -77 10 -318 l-3 -309 -519 -3 c-375 -1 -523 1 -532 9 -19 16 -21 598 -2 617 14 14 1024 17 1046 4z"/>
<path d="M624 1125 c-34 -23 -42 -61 -48 -219 l-5 -148 28 -29 c18 -17 40 -29 55 -29 38 0 332 143 345 168 15 28 14 75 -1 94 -7 8 -58 39 -113 69 -55 29 -120 65 -144 81 -50 31 -86 35 -117 13z m107 -63 c24 -15 85 -50 134 -77 97 -52 106 -60 97 -83 -6 -16 -278 -152 -304 -152 -34 0 -37 20 -31 169 3 80 10 152 16 159 15 19 39 15 88 -16z"/>
</g>
</svg>
