<?xml version="1.0" standalone="no"?>
<!DOCTYPE svg PUBLIC "-//W3C//DTD SVG 20010904//EN" "http://www.w3.org/TR/2001/REC-SVG-20010904/DTD/svg10.dtd">
<svg xmlns="http://www.w3.org/2000/svg" version="1.0" width="198.000000pt" height="256.000000pt" viewBox="0 0 198.000000 256.000000" preserveAspectRatio="xMidYMid meet">
<metadata>
Created by potrace 1.16, written by Peter Selinger 2001-2019
<meta name="Producer" content="Online-Convert"/></metadata>
<g transform="translate(0.000000,256.000000) scale(0.100000,-0.100000)" fill="#000000" stroke="none">
<path d="M155 1776 c-37 -17 -80 -62 -94 -99 -7 -18 -11 -176 -11 -450 0 -482 0 -480 81 -534 l43 -28 520 0 c588 0 571 -2 624 78 23 35 27 52 30 138 3 55 5 99 7 99 1 0 123 -50 270 -110 147 -61 272 -110 276 -110 5 0 9 209 9 465 0 436 -1 465 -17 464 -10 0 -135 -49 -278 -108 l-260 -107 -5 95 c-7 128 -31 172 -113 206 -31 13 -109 15 -544 15 -402 -1 -514 -4 -538 -14z m1064 -81 c16 -8 34 -28 40 -46 16 -48 15 -816 -2 -849 -29 -58 -32 -58 -573 -57 l-496 2 -29 33 -29 32 0 413 c1 441 1 445 51 473 37 21 998 20 1038 -1z m601 -470 c0 -190 -1 -345 -3 -345 -1 0 -106 42 -232 94 l-230 95 -2 158 -3 158 223 92 c122 50 228 92 235 92 9 1 12 -74 12 -344z"/>
</g>
</svg>
