<?xml version="1.0" standalone="no"?>
<!DOCTYPE svg PUBLIC "-//W3C//DTD SVG 20010904//EN" "http://www.w3.org/TR/2001/REC-SVG-20010904/DTD/svg10.dtd">
<svg xmlns="http://www.w3.org/2000/svg" version="1.0" width="198.000000pt" height="256.000000pt" viewBox="0 0 198.000000 256.000000" preserveAspectRatio="xMidYMid meet">
<metadata>
Created by potrace 1.16, written by Peter Selinger 2001-2019
<meta name="Producer" content="Online-Convert"/></metadata>
<g transform="translate(0.000000,256.000000) scale(0.100000,-0.100000)" fill="#000000" stroke="none">
<path d="M1538 2186 c-49 -13 -52 -15 -130 -80 -39 -32 -46 -42 -36 -53 9 -11 9 -16 -1 -23 -11 -6 -11 -11 0 -27 30 -41 263 -313 268 -313 3 0 42 29 86 64 91 71 120 120 119 197 -1 69 -78 190 -143 224 -41 21 -111 26 -163 11z m139 -91 c40 -28 83 -108 83 -155 0 -40 -5 -48 -51 -92 -29 -27 -55 -47 -59 -46 -4 2 -51 54 -104 117 -93 111 -95 115 -78 134 46 52 162 75 209 42z"/>
<path d="M1280 1972 c-36 -29 -896 -840 -1053 -992 l-39 -37 -33 -234 c-18 -129 -31 -235 -30 -237 1 -1 95 15 209 36 l207 38 407 415 c223 228 471 480 550 560 l143 146 -147 172 c-81 94 -152 171 -158 171 -6 -1 -31 -18 -56 -38z m139 -219 c35 -40 61 -77 59 -83 -1 -5 -225 -236 -497 -514 l-493 -503 -111 -21 c-61 -12 -113 -20 -115 -17 -5 5 19 183 28 209 5 15 14 10 63 -40 31 -32 60 -67 63 -77 5 -16 12 -18 42 -12 21 4 39 9 41 11 11 11 -35 80 -97 146 l-69 73 495 469 c475 450 495 468 511 450 10 -11 46 -52 80 -91z"/>
<path d="M925 1399 c-171 -160 -323 -304 -340 -320 l-29 -28 24 -26 c13 -14 27 -25 32 -25 5 0 159 142 343 316 l334 316 -21 29 c-12 16 -24 29 -28 29 -3 0 -145 -131 -315 -291z"/>
<path d="M999 530 c-19 -5 -73 -27 -118 -49 -156 -76 -305 -89 -435 -40 l-60 22 -18 -23 c-27 -34 -22 -46 30 -68 153 -66 324 -55 511 32 53 25 119 48 146 51 69 9 164 -10 263 -52 112 -48 174 -63 260 -63 81 0 132 17 175 57 35 34 34 45 -4 67 -30 18 -30 18 -56 -8 -47 -47 -172 -48 -283 -1 -141 59 -204 76 -290 80 -47 3 -101 0 -121 -5z"/>
</g>
</svg>
